<mxfile host="app.diagrams.net" modified="2022-09-20T15:30:25.203Z" agent="5.0 (Windows)" etag="bfxZ_GTLGERUzxW0DG08" version="20.3.0" type="github">
  <diagram id="LbYXzpD5kTZlWJo-V-Bv" name="Page-1">
    <mxGraphModel dx="1422" dy="780" grid="1" gridSize="10" guides="1" tooltips="1" connect="1" arrows="1" fold="1" page="1" pageScale="1" pageWidth="850" pageHeight="1100" math="0" shadow="0">
      <root>
        <mxCell id="0" />
        <mxCell id="1" parent="0" />
        <mxCell id="2lUnjzj0aiTv771hTf12-1" value="Boot Sector" style="rounded=0;whiteSpace=wrap;html=1;" vertex="1" parent="1">
          <mxGeometry x="160" y="240" width="40" height="60" as="geometry" />
        </mxCell>
        <mxCell id="2lUnjzj0aiTv771hTf12-2" value="Master File Table" style="rounded=0;whiteSpace=wrap;html=1;" vertex="1" parent="1">
          <mxGeometry x="200" y="240" width="60" height="60" as="geometry" />
        </mxCell>
        <mxCell id="2lUnjzj0aiTv771hTf12-3" value="File system" style="rounded=0;whiteSpace=wrap;html=1;" vertex="1" parent="1">
          <mxGeometry x="260" y="240" width="260" height="60" as="geometry" />
        </mxCell>
        <mxCell id="2lUnjzj0aiTv771hTf12-4" value="File Table Copy" style="rounded=0;whiteSpace=wrap;html=1;" vertex="1" parent="1">
          <mxGeometry x="520" y="240" width="60" height="60" as="geometry" />
        </mxCell>
        <mxCell id="2lUnjzj0aiTv771hTf12-6" style="edgeStyle=orthogonalEdgeStyle;rounded=0;orthogonalLoop=1;jettySize=auto;html=1;" edge="1" parent="1" source="2lUnjzj0aiTv771hTf12-5" target="2lUnjzj0aiTv771hTf12-1">
          <mxGeometry relative="1" as="geometry" />
        </mxCell>
        <mxCell id="2lUnjzj0aiTv771hTf12-5" value="This is the boot sector.&amp;nbsp; It contains all the information about the drive such as sector size, sectors per cluster, and that the drive is NTFS" style="rounded=1;whiteSpace=wrap;html=1;" vertex="1" parent="1">
          <mxGeometry x="160" y="120" width="160" height="90" as="geometry" />
        </mxCell>
        <mxCell id="2lUnjzj0aiTv771hTf12-8" style="edgeStyle=orthogonalEdgeStyle;rounded=0;orthogonalLoop=1;jettySize=auto;html=1;" edge="1" parent="1" source="2lUnjzj0aiTv771hTf12-7" target="2lUnjzj0aiTv771hTf12-2">
          <mxGeometry relative="1" as="geometry" />
        </mxCell>
        <mxCell id="2lUnjzj0aiTv771hTf12-7" value="This is the Master File table, it serves the same purpose as the FAT.&amp;nbsp; Each entry in the MFT is1KB with the first 42 bytes reserved for the file information, and the rest of the 1KB is used for storing file attributes, or if the file is small enough, the file itself" style="rounded=1;whiteSpace=wrap;html=1;" vertex="1" parent="1">
          <mxGeometry x="155" y="330" width="270" height="100" as="geometry" />
        </mxCell>
        <mxCell id="2lUnjzj0aiTv771hTf12-10" style="edgeStyle=orthogonalEdgeStyle;rounded=0;orthogonalLoop=1;jettySize=auto;html=1;" edge="1" parent="1" source="2lUnjzj0aiTv771hTf12-9" target="2lUnjzj0aiTv771hTf12-3">
          <mxGeometry relative="1" as="geometry" />
        </mxCell>
        <mxCell id="2lUnjzj0aiTv771hTf12-9" value="The bulk of the data storage.&amp;nbsp; Where the majority of file data is stored." style="rounded=1;whiteSpace=wrap;html=1;" vertex="1" parent="1">
          <mxGeometry x="340" y="140" width="130" height="70" as="geometry" />
        </mxCell>
        <mxCell id="2lUnjzj0aiTv771hTf12-12" style="edgeStyle=orthogonalEdgeStyle;rounded=0;orthogonalLoop=1;jettySize=auto;html=1;" edge="1" parent="1" source="2lUnjzj0aiTv771hTf12-11" target="2lUnjzj0aiTv771hTf12-4">
          <mxGeometry relative="1" as="geometry" />
        </mxCell>
        <mxCell id="2lUnjzj0aiTv771hTf12-11" value="This is a copy of the MFT.&amp;nbsp; It is used for redundancy, and can also be used to detect if someone is trying to hide data" style="rounded=1;whiteSpace=wrap;html=1;" vertex="1" parent="1">
          <mxGeometry x="440" y="330" width="140" height="100" as="geometry" />
        </mxCell>
      </root>
    </mxGraphModel>
  </diagram>
</mxfile>
